Coordinates
version=1
nRows=16
nColumns=28
inDegrees=yes

Units are S.I. units (second, meters, Newtons, ...)
Angles are in degrees.

endheader
time	pelvis_tilt	pelvis_list	pelvis_rotation	pelvis_tx	pelvis_ty	pelvis_tz	hip_flexion_r	hip_adduction_r	hip_rotation_r	knee_angle_r	ankle_angle_r	subtalar_angle_r	mtp_angle_r	hip_flexion_l	hip_adduction_l	hip_rotation_l	knee_angle_l	socket_flexion	socket_adduction	socket_rotation	socket_tx	socket_ty	socket_tz	foot_flex	lumbar_extension	lumbar_bending	lumbar_rotation
      0.53333333	     -1.03846463	     -6.72717789	      7.00765046	     -0.01534266	      0.95985984	      0.23618646	     25.20559669	      6.10988209	     -4.64295810	     -9.61291086	      5.58436260	    -13.92984334	     -1.90210247	    -18.95433882	     -5.60167871	     -9.43168801	    -12.77094598	     -2.12819134	     -5.96804082	     18.87590279	      0.00000000	      0.00050971	      0.00000000	      9.95737520	     -7.37605749	      7.58826395	    -18.41091218
      0.53750000	     -1.25099910	     -6.66725402	      6.97184080	     -0.01528776	      0.95955383	      0.23618172	     25.52524526	      5.99316641	     -4.80189724	     -9.80331204	      5.53624308	    -13.85311664	     -1.32536926	    -18.79645905	     -5.47293240	     -9.20775021	    -12.50999939	     -1.92452056	     -5.89505457	     18.70131666	      0.00000000	      0.00046191	      0.00000000	      9.96206555	     -7.11733207	      7.49854764	    -18.48837382
      0.54166667	     -1.12862388	     -6.76276570	      6.95702442	     -0.00890553	      0.95824018	      0.23638448	     25.82695841	      6.19772697	     -4.73915419	    -10.91923978	      5.07035279	    -13.88423431	     -1.04152187	    -19.13394419	     -5.63886579	     -9.35009061	    -12.82966267	     -1.85678456	     -5.92003692	     18.72117762	      0.00000000	      0.00053163	      0.00000000	      9.99311718	     -7.26760392	      7.66792060	    -18.43890645
      0.54583333	     -1.06820658	     -6.85840579	      6.91714784	     -0.00235895	      0.95688441	      0.23657815	     26.18652840	      6.40327493	     -4.65030729	    -12.06191695	      4.55128624	    -13.88754973	     -0.77690744	    -19.42211501	     -5.77708961	     -9.46885645	    -13.10319236	     -1.74191557	     -5.94532733	     18.75440763	      0.00000000	      0.00068041	      0.00000000	     10.03764495	     -7.31082810	      7.82698071	    -18.42712900
      0.55000000	     -1.08219346	     -6.90995136	      6.80540679	      0.00413860	      0.95543074	      0.23687182	     26.68661465	      6.56120136	     -4.56310561	    -13.34465149	      3.94480538	    -13.92895508	     -0.30804935	    -19.60931099	     -5.84430889	     -9.69798839	    -13.40746243	     -1.59005615	     -5.95944816	     18.80884141	      0.00000000	      0.00080978	      0.00000000	     10.03097864	     -7.29149500	      7.93641245	    -18.36048222
      0.55416667	     -1.02866195	     -7.01010926	      6.87638710	      0.01067980	      0.95423836	      0.23698427	     26.91430090	      6.76619742	     -4.28341068	    -14.27724059	      3.57490837	    -13.85977278	     -0.19384285	    -19.81757414	     -6.03547252	     -9.58546749	    -13.68344955	     -1.36455068	     -5.95516755	     18.90198174	      0.00000000	      0.00095817	      0.00000000	     10.03045234	     -7.31931040	      8.11266932	    -18.36316813
      0.55833333	     -1.47735009	     -6.95041450	      6.54021678	      0.01718038	      0.95214096	      0.23774838	     28.01946237	      6.81705083	     -4.12353942	    -15.81554325	      2.09435275	    -14.73107340	      4.15800412	    -19.32864117	     -5.92961376	    -10.17718095	    -14.75070852	     -1.64360142	     -6.19520832	     19.08740337	      0.00000000	      0.00125204	      0.00000000	      9.99651904	     -6.81075253	      7.97994139	    -18.11228556
      0.56250000	     -1.37776554	     -7.06741302	      6.49968572	      0.02376043	      0.95100138	      0.23798214	     28.29070733	      7.04731004	     -3.96929075	    -16.94305538	      1.62026952	    -14.66097091	      4.17526114	    -19.58751137	     -6.09142311	    -10.19425403	    -15.01223675	     -1.37457592	     -6.14819802	     19.02953371	      0.00000000	      0.00128629	      0.00000000	      9.88560363	     -6.89821302	      8.17295285	    -18.14906670
      0.56666667	     -1.59440786	     -7.01554087	      6.18191489	      0.03037344	      0.94944019	      0.23869295	     29.00768521	      7.18850170	     -3.56682976	    -18.32086890	      1.00329287	    -14.78801836	      4.64107678	    -19.53486549	     -5.96163315	    -10.48797256	    -15.26294926	     -1.00929151	     -6.14793336	     19.08802293	      0.00000000	      0.00148488	      0.00000000	      9.76933143	     -6.66735210	      8.09519923	    -17.85846642
      0.57083333	     -1.50221225	     -7.14035681	      6.23098478	      0.03697253	      0.94853197	      0.23888519	     29.17811362	      7.42174209	     -3.33290588	    -19.27162929	      0.66396831	    -14.71887721	      4.66406863	    -19.67879367	     -6.16749510	    -10.39035298	    -15.60611802	     -0.65221592	     -6.10578759	     19.09610747	      0.00000000	      0.00159574	      0.00000000	      9.61678763	     -6.75049061	      8.29771781	    -17.87849241
      0.57500000	     -1.42745587	     -7.25389434	      6.05331124	      0.04373816	      0.94744504	      0.23942219	     29.52880821	      7.68059711	     -3.26434097	    -20.55295342	      0.12853903	    -14.71922266	      4.70304081	    -19.87077889	     -6.28396978	    -10.52384793	    -15.96926424	     -0.38935675	     -6.03632853	     18.90983903	      0.00000000	      0.00164125	      0.00000000	      9.39441388	     -6.79420254	      8.45587927	    -17.90856125
      0.57916667	     -1.77685094	     -7.13422430	      5.69091430	      0.05030048	      0.94594503	      0.24032681	     30.33925431	      7.78298906	     -2.76834529	    -21.88817547	     -0.49195060	    -15.06699765	      5.15000535	    -19.50273797	     -6.08582181	    -10.89852418	    -16.52567196	     -0.05372944	     -6.08378479	     18.98589916	      0.00000000	      0.00193435	      0.00000000	      9.16076542	     -6.44131673	      8.27027975	    -17.57682774
      0.58333333	     -1.71520512	     -7.28750730	      5.57112755	      0.05701540	      0.94506924	      0.24084013	     30.57716150	      8.09626285	     -2.58422119	    -22.94723292	     -0.81774491	    -15.10913188	      5.25125015	    -19.55186237	     -6.26823735	    -10.93974150	    -17.01949291	      0.28784476	     -6.02933431	     18.83674349	      0.00000000	      0.00197593	      0.00000000	      8.85397619	     -6.46770935	      8.47769868	    -17.56122899
      0.58750000	     -1.74278219	     -7.37064079	      5.44177636	      0.06384551	      0.94419241	      0.24138858	     30.88915427	      8.34633218	     -2.33862036	    -24.02465846	     -1.16835427	    -15.24465583	      5.40417571	    -19.46766725	     -6.37357454	    -11.08331718	    -17.57664241	      0.63968751	     -6.01402485	     18.72827730	      0.00000000	      0.00212502	      0.00000000	      8.52021398	     -6.38383873	      8.57360692	    -17.48108495
      0.59166667	     -1.75515163	     -7.47111446	      5.28416366	      0.07046673	      0.94343400	      0.24203484	     31.16194567	      8.62491127	     -2.10215658	    -25.03275820	     -1.43509784	    -15.36434555	      5.53004575	    -19.33324839	     -6.50367410	    -11.19920328	    -18.17304370	      1.05066803	     -5.95214022	     18.61844370	      0.00000000	      0.00220839	      0.00000000	      8.13328024	     -6.38274889	      8.69725789	    -17.41071867
      0.59583333	     -2.25529847	     -7.46426570	      4.96862775	      0.07697297	      0.94202920	      0.24326370	     31.97767862	      8.91602506	     -1.43929318	    -26.10469791	     -1.94310389	    -16.21145391	      6.11523813	    -18.41551147	     -6.54951790	    -11.62301111	    -19.62094444	      0.99778191	     -6.13576611	     18.71948139	      0.00000000	      0.00256239	      0.00000000	      7.73092616	     -5.82019685	      8.55714542	    -16.99595895
